<?xml version="1.0" encoding="UTF-8" standalone="no"?>
<!DOCTYPE svg PUBLIC "-//W3C//DTD SVG 1.1//EN"
 "http://www.w3.org/Graphics/SVG/1.1/DTD/svg11.dtd">
<!-- Generated by graphviz version 2.40.1 (20161225.0304)
 -->
<!-- Title: dependencies Pages: 1 -->
<svg width="504pt" height="284pt"
 viewBox="0.00 0.00 504.00 284.00" xmlns="http://www.w3.org/2000/svg" xmlns:xlink="http://www.w3.org/1999/xlink">
<g id="graph0" class="graph" transform="scale(1 1) rotate(0) translate(4 280)">
<title>dependencies</title>
<polygon fill="#ffffff" stroke="transparent" points="-4,4 -4,-280 500,-280 500,4 -4,4"/>
<text text-anchor="start" x="227.0091" y="-42.4" font-family="sans-serif" font-weight="bold" font-size="14.00" fill="#000000">Legend</text>
<polygon fill="#ffffb3" stroke="transparent" points="14,-10 14,-30 34,-30 34,-10 14,-10"/>
<text text-anchor="start" x="37.629" y="-15.4" font-family="sans-serif" font-size="14.00" fill="#000000"> &#160;Declarations</text>
<polygon fill="#8dd3c7" stroke="transparent" points="127,-10 127,-30 147,-30 147,-10 127,-10"/>
<text text-anchor="start" x="150.7251" y="-15.4" font-family="sans-serif" font-size="14.00" fill="#000000"> &#160;Module</text>
<polygon fill="#80b1d3" stroke="transparent" points="213,-10 213,-30 233,-30 233,-10 213,-10"/>
<text text-anchor="start" x="236.7812" y="-15.4" font-family="sans-serif" font-size="14.00" fill="#000000"> &#160;Bootstrap</text>
<polygon fill="#fdb462" stroke="transparent" points="310,-10 310,-30 330,-30 330,-10 310,-10"/>
<text text-anchor="start" x="333.6732" y="-15.4" font-family="sans-serif" font-size="14.00" fill="#000000"> &#160;Providers</text>
<polygon fill="#fb8072" stroke="transparent" points="406,-10 406,-30 426,-30 426,-10 406,-10"/>
<text text-anchor="start" x="429.7258" y="-15.4" font-family="sans-serif" font-size="14.00" fill="#000000"> &#160;Exports</text>
<g id="clust1" class="cluster">
<title>cluster_SampleModule</title>
<polygon fill="none" stroke="#000000" stroke-dasharray="1,5" points="56,-70 56,-268 440,-268 440,-70 56,-70"/>
</g>
<g id="clust2" class="cluster">
<title>cluster_SampleModule_declarations</title>
<polygon fill="none" stroke="#000000" points="64,-78 64,-130 432,-130 432,-78 64,-78"/>
</g>
<g id="clust7" class="cluster">
<title>cluster_SampleModule_exports</title>
<polygon fill="none" stroke="#000000" points="111,-208 111,-260 385,-260 385,-208 111,-208"/>
</g>
<!-- SampleComponent -->
<g id="node1" class="node">
<title>SampleComponent</title>
<polygon fill="#ffffb3" stroke="#000000" points="423.8258,-122 300.1742,-122 300.1742,-86 423.8258,-86 423.8258,-122"/>
<text text-anchor="middle" x="362" y="-99.8" font-family="Times,serif" font-size="14.00" fill="#000000">SampleComponent</text>
</g>
<!-- SampleModule -->
<g id="node4" class="node">
<title>SampleModule</title>
<polygon fill="#8dd3c7" stroke="#000000" points="277.5438,-187 274.5438,-191 253.5438,-191 250.5438,-187 176.4562,-187 176.4562,-151 277.5438,-151 277.5438,-187"/>
<text text-anchor="middle" x="227" y="-164.8" font-family="Times,serif" font-size="14.00" fill="#000000">SampleModule</text>
</g>
<!-- SampleComponent&#45;&gt;SampleModule -->
<g id="edge1" class="edge">
<title>SampleComponent&#45;&gt;SampleModule</title>
<path fill="none" stroke="#000000" d="M338.875,-122.1061C338.875,-141.3391 338.875,-169 338.875,-169 338.875,-169 287.7002,-169 287.7002,-169"/>
<polygon fill="#000000" stroke="#000000" points="287.7002,-165.5001 277.7002,-169 287.7002,-172.5001 287.7002,-165.5001"/>
</g>
<!-- SampleDirective -->
<g id="node2" class="node">
<title>SampleDirective</title>
<polygon fill="#ffffb3" stroke="#000000" points="282.0758,-122 171.9242,-122 171.9242,-86 282.0758,-86 282.0758,-122"/>
<text text-anchor="middle" x="227" y="-99.8" font-family="Times,serif" font-size="14.00" fill="#000000">SampleDirective</text>
</g>
<!-- SampleDirective&#45;&gt;SampleModule -->
<g id="edge2" class="edge">
<title>SampleDirective&#45;&gt;SampleModule</title>
<path fill="none" stroke="#000000" d="M227,-122.1061C227,-122.1061 227,-140.991 227,-140.991"/>
<polygon fill="#000000" stroke="#000000" points="223.5001,-140.9909 227,-150.991 230.5001,-140.991 223.5001,-140.9909"/>
</g>
<!-- SamplePipe -->
<g id="node3" class="node">
<title>SamplePipe</title>
<polygon fill="#ffffb3" stroke="#000000" points="154.3809,-122 71.6191,-122 71.6191,-86 154.3809,-86 154.3809,-122"/>
<text text-anchor="middle" x="113" y="-99.8" font-family="Times,serif" font-size="14.00" fill="#000000">SamplePipe</text>
</g>
<!-- SamplePipe&#45;&gt;SampleModule -->
<g id="edge3" class="edge">
<title>SamplePipe&#45;&gt;SampleModule</title>
<path fill="none" stroke="#000000" d="M136.8262,-122.1061C136.8262,-141.3391 136.8262,-169 136.8263,-169 136.8263,-169 166.3778,-169 166.3778,-169"/>
<polygon fill="#000000" stroke="#000000" points="166.3778,-172.5001 176.3778,-169 166.3777,-165.5001 166.3778,-172.5001"/>
</g>
<!-- SampleComponent  -->
<g id="node5" class="node">
<title>SampleComponent </title>
<polygon fill="#fb8072" stroke="#000000" points="377.3255,-252 250.6745,-252 250.6745,-216 377.3255,-216 377.3255,-252"/>
<text text-anchor="middle" x="314" y="-229.8" font-family="Times,serif" font-size="14.00" fill="#000000">SampleComponent </text>
</g>
<!-- SampleModule&#45;&gt;SampleComponent  -->
<g id="edge4" class="edge">
<title>SampleModule&#45;&gt;SampleComponent </title>
<path fill="none" stroke="#000000" stroke-dasharray="5,2" d="M264.1794,-187.1061C264.1794,-187.1061 264.1794,-205.991 264.1794,-205.991"/>
<polygon fill="#000000" stroke="#000000" points="260.6794,-205.9909 264.1794,-215.991 267.6794,-205.991 260.6794,-205.9909"/>
</g>
<!-- SampleDirective  -->
<g id="node6" class="node">
<title>SampleDirective </title>
<polygon fill="#fb8072" stroke="#000000" points="232.5766,-252 119.4234,-252 119.4234,-216 232.5766,-216 232.5766,-252"/>
<text text-anchor="middle" x="176" y="-229.8" font-family="Times,serif" font-size="14.00" fill="#000000">SampleDirective </text>
</g>
<!-- SampleModule&#45;&gt;SampleDirective  -->
<g id="edge5" class="edge">
<title>SampleModule&#45;&gt;SampleDirective </title>
<path fill="none" stroke="#000000" stroke-dasharray="5,2" d="M204.5083,-187.1061C204.5083,-187.1061 204.5083,-205.991 204.5083,-205.991"/>
<polygon fill="#000000" stroke="#000000" points="201.0083,-205.9909 204.5083,-215.991 208.0083,-205.991 201.0083,-205.9909"/>
</g>
</g>
</svg>
